<svg width="300" height="52" viewBox="0 0 300 52" fill="none" xmlns="http://www.w3.org/2000/svg">
<path d="M28.8963 0L53.8226 39H3.96997L28.8963 0Z" fill="#F1B8B8"/>
<mask id="mask0_17_158" style="mask-type:alpha" maskUnits="userSpaceOnUse" x="3" y="0" width="51" height="39">
<path d="M28.7824 0L53.7087 39H3.85611L28.7824 0Z" fill="#D9D9D9"/>
</mask>
<g mask="url(#mask0_17_158)">
<rect x="28.6406" width="24.9542" height="38.866" fill="#14B869"/>
</g>
<ellipse cx="86.0636" cy="19.433" rx="20.5589" ry="19.433" fill="#3038FF"/>
<mask id="mask1_17_158" style="mask-type:alpha" maskUnits="userSpaceOnUse" x="65" y="0" width="42" height="39">
<ellipse cx="86.0636" cy="19.433" rx="20.5589" ry="19.433" fill="#D9D9D9"/>
</mask>
<g mask="url(#mask1_17_158)">
<rect x="86.2054" y="-0.268066" width="20.4171" height="19.567" fill="#14B869"/>
</g>
<mask id="mask2_17_158" style="mask-type:alpha" maskUnits="userSpaceOnUse" x="65" y="0" width="42" height="39">
<ellipse cx="86.0636" cy="19.433" rx="20.5589" ry="19.433" fill="#D9D9D9"/>
</mask>
<g mask="url(#mask2_17_158)">
<rect x="85.3547" y="19.299" width="20.4171" height="19.567" fill="#3038FF"/>
</g>
<mask id="mask3_17_158" style="mask-type:alpha" maskUnits="userSpaceOnUse" x="65" y="0" width="42" height="39">
<ellipse cx="86.0636" cy="19.433" rx="20.5589" ry="19.433" fill="#D9D9D9"/>
</mask>
<g mask="url(#mask3_17_158)">
<rect x="65.5048" y="19.299" width="20.4171" height="19.567" fill="#F1B8B8"/>
</g>
<path d="M288.781 38.9482C286.588 38.9482 284.648 38.4552 282.962 37.4692C281.289 36.4832 279.977 35.0107 279.026 33.0516C278.075 31.0926 277.6 28.66 277.6 25.7539C277.6 22.7959 278.075 20.3503 279.026 18.4173C279.977 16.4712 281.289 15.0246 282.962 14.0775C284.648 13.1175 286.588 12.6375 288.781 12.6375C290.987 12.6375 292.933 13.1305 294.619 14.1165C296.305 15.0895 297.623 16.549 298.574 18.4951C299.525 20.4412 300 22.8608 300 25.7539C300 28.6989 299.525 31.151 298.574 33.11C297.623 35.0691 296.305 36.5351 294.619 37.5081C292.933 38.4682 290.987 38.9482 288.781 38.9482ZM288.781 34.7836C290.796 34.7836 292.394 34.0052 293.573 32.4484C294.764 30.8915 295.36 28.6471 295.36 25.715C295.36 22.8867 294.764 20.6877 293.573 19.1178C292.394 17.548 290.796 16.7631 288.781 16.7631C286.803 16.7631 285.219 17.5545 284.027 19.1373C282.835 20.7071 282.24 22.9127 282.24 25.7539C282.24 28.673 282.835 30.911 284.027 32.4678C285.219 34.0117 286.803 34.7836 288.781 34.7836Z" fill="#3038FF"/>
<path d="M265.044 13.1434V34.3944H275.198V38.4033H260.556V13.1434H265.044Z" fill="#3038FF"/>
<path d="M244.899 38.9482C243.188 38.9482 241.61 38.6433 240.164 38.0336C238.732 37.4238 237.566 36.4962 236.666 35.2507C235.778 34.0052 235.303 32.4224 235.239 30.5023H239.651C239.651 31.4753 239.886 32.2732 240.355 32.896C240.824 33.5187 241.451 33.9858 242.237 34.2971C243.036 34.5955 243.911 34.7447 244.861 34.7447C245.774 34.7447 246.585 34.6215 247.295 34.375C248.018 34.1285 248.582 33.7782 248.988 33.3241C249.406 32.857 249.615 32.3057 249.615 31.6699C249.615 30.8266 249.362 30.165 248.855 29.685C248.36 29.2049 247.561 28.7638 246.459 28.3616L241.591 26.3766C239.689 25.6112 238.231 24.7225 237.217 23.7105C236.203 22.6986 235.696 21.3039 235.696 19.5265C235.696 17.4767 236.488 15.816 238.073 14.5446C239.657 13.2732 241.87 12.6375 244.709 12.6375C247.473 12.6375 249.609 13.2991 251.117 14.6224C252.626 15.9328 253.482 17.7621 253.684 20.1103H249.273C249.108 19.1114 248.664 18.3135 247.942 17.7167C247.219 17.1069 246.142 16.802 244.709 16.802C243.441 16.802 242.44 17.0745 241.705 17.6194C240.969 18.1513 240.602 18.8259 240.602 19.6433C240.602 20.3439 240.83 20.9017 241.286 21.3169C241.755 21.7191 242.478 22.1083 243.454 22.4845L248.855 24.6252C250.68 25.3517 252.081 26.2664 253.057 27.3691C254.033 28.4719 254.521 29.8536 254.521 31.5143C254.521 33.0322 254.147 34.349 253.399 35.4648C252.651 36.5675 251.561 37.4238 250.129 38.0336C248.696 38.6433 246.953 38.9482 244.899 38.9482Z" fill="#3038FF"/>
<path d="M219.775 38.9482C217.582 38.9482 215.643 38.4552 213.957 37.4692C212.283 36.4832 210.971 35.0107 210.02 33.0516C209.07 31.0926 208.594 28.66 208.594 25.7539C208.594 22.7959 209.07 20.3503 210.02 18.4173C210.971 16.4712 212.283 15.0246 213.957 14.0775C215.643 13.1175 217.582 12.6375 219.775 12.6375C221.981 12.6375 223.927 13.1305 225.613 14.1165C227.299 15.0895 228.618 16.549 229.568 18.4951C230.519 20.4412 230.994 22.8608 230.994 25.7539C230.994 28.6989 230.519 31.151 229.568 33.11C228.618 35.0691 227.299 36.5351 225.613 37.5081C223.927 38.4682 221.981 38.9482 219.775 38.9482ZM219.775 34.7836C221.791 34.7836 223.388 34.0052 224.567 32.4484C225.759 30.8915 226.355 28.6471 226.355 25.715C226.355 22.8867 225.759 20.6877 224.567 19.1178C223.388 17.548 221.791 16.7631 219.775 16.7631C217.798 16.7631 216.213 17.5545 215.021 19.1373C213.83 20.7071 213.234 22.9127 213.234 25.7539C213.234 28.673 213.83 30.911 215.021 32.4678C216.213 34.0117 217.798 34.7836 219.775 34.7836Z" fill="#3038FF"/>
<path d="M174.218 38.4033L182.623 13.1434H188.251L196.314 38.4033H191.598L189.887 32.9543H180.721L178.972 38.4033H174.218ZM181.862 29.4904H188.822L185.361 18.6313L181.862 29.4904Z" fill="#3038FF"/>
<path d="M165.33 38.4033V13.1434H169.818V38.4033H165.33Z" fill="#3038FF"/>
<path d="M140.855 38.4033V13.1434H149.983C152.937 13.1434 155.199 13.8505 156.771 15.2646C158.356 16.6788 159.148 18.5535 159.148 20.8888C159.148 23.1851 158.356 25.0404 156.771 26.4545C155.199 27.8557 152.937 28.5562 149.983 28.5562H145.343V38.4033H140.855ZM154.204 38.4033L147.663 26.5713H152.455L160.061 38.4033H154.204ZM145.343 25.4815H149.527C151.175 25.4815 152.423 25.0987 153.273 24.3333C154.122 23.5549 154.547 22.5494 154.547 21.3169C154.547 20.0584 154.16 19.0465 153.387 18.281C152.613 17.5026 151.479 17.1134 149.983 17.1134H145.343V25.4815Z" fill="#3038FF"/>
<path d="M114.349 38.4033L122.754 13.1434H128.382L136.445 38.4033H131.729L130.018 32.9543H120.852L119.103 38.4033H114.349ZM121.993 29.4904H128.953L125.492 18.6313L121.993 29.4904Z" fill="#3038FF"/>
</svg>
